<?xml version="1.0" standalone="no"?>
<!DOCTYPE svg PUBLIC "-//W3C//DTD SVG 20010904//EN"
 "http://www.w3.org/TR/2001/REC-SVG-20010904/DTD/svg10.dtd">
<svg version="1.0" xmlns="http://www.w3.org/2000/svg"
 width="900.000000pt" height="900.000000pt" viewBox="0 0 900.000000 900.000000"
 preserveAspectRatio="xMidYMid meet">
<metadata>
Created by potrace 1.11, written by Peter Selinger 2001-2013
</metadata>
<g transform="translate(0.000000,900.000000) scale(0.100000,-0.100000)"
fill="#000000" stroke="none">
<path d="M4360 8489 c-213 -15 -493 -56 -610 -89 -133 -37 -283 -86 -328 -106
-29 -13 -55 -24 -57 -24 -3 0 -51 -21 -107 -46 -692 -311 -1048 -565 -1381
-986 -77 -97 -108 -141 -212 -307 -74 -117 -199 -385 -271 -581 -200 -543
-275 -1341 -188 -1990 66 -496 233 -989 478 -1414 258 -445 714 -853 1017
-907 65 -12 70 -11 122 15 38 18 58 35 67 56 7 17 17 33 22 36 6 4 29 -12 51
-34 23 -22 83 -69 132 -106 50 -36 95 -70 100 -74 22 -18 144 -89 228 -132 48
-25 87 -47 87 -50 0 -3 -36 -19 -81 -35 -158 -58 -238 -148 -394 -440 -40 -75
-151 -335 -200 -465 -82 -223 -255 -761 -255 -796 0 -11 17 -14 83 -14 l83 0
14 52 c21 83 115 376 195 608 87 249 259 629 337 742 l25 37 5 -43 c3 -24 22
-82 42 -128 58 -137 70 -213 63 -423 -10 -268 -35 -435 -101 -654 -31 -101
-56 -186 -56 -187 0 -2 38 -4 85 -4 47 0 85 3 85 8 0 4 9 65 19 137 11 72 29
204 40 295 12 91 26 205 32 254 17 135 12 323 -11 436 -20 96 -32 134 -72 218
-39 83 1 147 126 198 33 13 61 24 64 24 2 0 1 -18 -3 -39 -4 -25 -2 -48 7 -64
7 -14 116 -131 241 -261 236 -243 258 -260 315 -242 31 10 50 31 197 216 76
96 142 179 145 183 4 5 44 -38 88 -95 44 -57 87 -112 96 -123 9 -11 43 -54 75
-97 69 -87 94 -108 134 -108 43 0 76 22 142 91 32 35 134 142 225 238 91 95
170 183 177 195 7 11 12 36 13 54 0 17 4 32 8 32 5 0 28 -14 50 -30 49 -35 51
-48 20 -140 -18 -54 -22 -89 -22 -210 -1 -80 5 -185 11 -235 7 -49 20 -146 29
-215 21 -167 51 -318 115 -582 l33 -138 59 0 c49 0 58 3 53 15 -11 30 -76 303
-106 448 -38 187 -79 495 -86 652 -5 89 -2 139 10 194 8 41 18 77 21 80 17 16
126 -179 195 -348 90 -218 166 -467 275 -893 l38 -148 84 0 c76 0 84 2 79 18
-3 9 -23 89 -45 177 -85 342 -166 615 -239 811 -38 102 -129 298 -159 344 -13
19 -23 38 -23 43 0 10 -74 112 -109 151 -54 59 -164 122 -308 177 -25 9 -21
12 72 60 53 27 122 65 151 84 30 19 56 35 59 35 10 0 128 86 212 153 167 134
364 356 471 532 51 82 142 252 170 314 l26 59 100 4 c223 11 409 91 562 243
294 289 334 727 100 1069 l-47 68 20 52 c11 28 39 116 61 196 23 80 63 213 90
295 92 284 106 428 91 896 -15 443 -52 631 -202 1027 -102 269 -237 473 -420
637 -48 43 -276 193 -394 258 -240 134 -371 180 -567 199 l-120 12 -36 45
c-152 189 -257 275 -411 338 -115 48 -298 112 -378 132 -218 56 -481 78 -723
60z m516 -188 c141 -27 211 -46 359 -98 138 -48 264 -105 305 -138 31 -25 138
-132 165 -166 11 -13 38 -47 60 -74 64 -80 71 -84 152 -85 206 -1 365 -50 593
-183 47 -27 99 -57 115 -65 77 -40 232 -154 305 -224 163 -157 278 -366 388
-708 91 -282 111 -405 124 -780 17 -465 5 -580 -91 -870 -21 -64 -51 -160 -66
-215 -49 -180 -75 -250 -121 -331 -25 -43 -57 -99 -70 -124 -14 -25 -38 -67
-55 -95 -28 -48 -38 -67 -88 -177 -12 -27 -25 -48 -29 -48 -14 1 -42 49 -52
92 -22 84 -24 80 60 118 69 31 84 63 88 192 7 186 -25 220 -238 257 -63 11
-143 23 -177 26 l-61 7 -26 107 c-41 167 -137 615 -161 746 -39 209 -76 307
-168 445 -33 49 -156 196 -184 220 -10 8 -48 42 -84 75 -73 67 -82 74 -159
132 -109 80 -240 120 -360 109 -73 -6 -77 -10 -159 -128 -122 -176 -449 -331
-771 -363 -400 -40 -757 -216 -1109 -550 -130 -123 -450 -500 -539 -635 -52
-79 -91 -127 -105 -132 -12 -3 -44 -6 -72 -7 -27 -1 -117 -10 -200 -21 -342
-45 -408 -65 -436 -133 -17 -40 -18 -249 -1 -290 8 -19 28 -35 59 -49 120 -53
145 -96 213 -364 28 -109 60 -228 70 -263 15 -48 20 -92 20 -185 0 -214 34
-498 72 -608 26 -75 119 -265 161 -328 17 -25 55 -76 85 -113 29 -38 52 -70
50 -72 -14 -14 -210 74 -264 118 -10 9 -55 42 -99 75 -95 70 -255 227 -338
332 -175 219 -344 524 -448 809 -12 31 -28 74 -36 96 -75 201 -154 537 -188
795 -22 172 -30 584 -16 800 33 502 121 892 286 1265 245 554 540 909 1013
1221 46 30 102 65 125 76 23 12 53 29 67 38 66 45 428 216 655 310 85 35 153
56 305 94 352 88 813 117 1076 67z m707 -2054 c153 -71 421 -338 514 -514 40
-75 93 -241 93 -292 0 -13 11 -74 24 -135 14 -61 41 -185 61 -276 19 -91 42
-193 50 -228 9 -35 13 -67 10 -72 -3 -4 -26 -1 -52 7 -115 38 -391 11 -643
-63 -123 -36 -128 -36 -360 -43 l-235 -6 -50 -29 c-27 -16 -68 -46 -90 -66
-22 -21 -58 -43 -80 -49 -47 -13 -568 -14 -632 -2 -29 6 -58 23 -95 56 -97 88
-103 89 -423 95 -154 3 -286 9 -293 14 -21 13 -203 64 -274 76 -35 6 -73 13
-86 16 l-23 5 20 27 c11 15 32 41 46 57 44 50 118 135 197 226 142 163 167
190 274 285 206 184 413 312 608 378 123 41 179 53 346 75 269 36 500 114 673
227 79 51 190 158 234 225 l27 41 53 -5 c29 -3 77 -16 106 -30z m777 -1608 c0
-5 -21 -9 -47 -8 -46 1 -46 1 -15 9 18 4 36 10 39 14 7 7 23 -2 23 -15z m-110
-180 c80 -5 149 -14 154 -19 5 -5 21 -40 36 -78 36 -87 90 -172 154 -240 l50
-53 -18 -132 c-76 -570 -154 -660 -612 -697 -341 -27 -541 1 -698 100 -140 89
-207 209 -306 552 -51 178 -64 253 -58 347 6 83 26 136 64 164 37 28 135 42
201 28 88 -17 169 -13 257 13 45 14 92 27 106 30 37 7 501 -3 670 -15z m-2793
-14 c88 -28 174 -32 269 -11 73 15 186 5 250 -24 51 -22 70 -54 86 -148 11
-63 9 -81 -11 -179 -41 -193 -121 -435 -185 -561 -64 -127 -174 -213 -326
-256 -163 -46 -493 -47 -717 -2 -139 28 -193 49 -247 96 l-37 33 6 76 c18 210
49 368 106 554 l30 98 38 -38 39 -38 -25 -21 c-24 -21 -24 -21 -7 -65 35 -88
113 -189 146 -189 5 0 20 11 33 24 29 29 25 46 -17 91 -15 16 -33 42 -39 58
-10 24 -9 30 7 42 52 38 262 131 272 120 2 -2 -10 -21 -26 -44 -134 -185 4
-449 239 -454 201 -3 347 206 274 396 -10 26 -16 50 -13 52 9 9 123 -77 195
-147 61 -61 75 -70 97 -64 30 7 50 39 41 65 -9 29 -148 157 -223 206 -82 53
-193 103 -244 111 -49 8 -50 24 0 18 113 -15 177 -29 270 -61 82 -28 106 -32
117 -23 8 7 15 18 15 25 0 20 -98 63 -209 93 -83 22 -117 26 -256 26 -185 1
-241 -9 -365 -66 -64 -30 -91 -37 -114 -32 -48 11 -66 26 -66 59 -1 29 -1 29
-15 11 -22 -29 -18 -64 10 -98 31 -37 25 -48 -26 -48 -41 0 -119 33 -119 50 0
14 36 103 75 183 19 39 35 77 35 84 0 9 44 13 173 16 94 1 220 4 279 5 91 2
119 -2 185 -23z m-841 -44 c-62 -122 -162 -423 -187 -561 -16 -93 -20 -81 -48
155 -29 243 -30 318 -5 353 29 39 93 71 171 87 99 19 96 21 69 -34z m-436 0
c5 -11 10 -34 10 -51 0 -44 -17 -70 -45 -70 -34 0 -55 26 -55 66 0 51 15 74
50 74 19 0 33 -7 40 -19z m4728 7 c15 -15 16 -82 2 -109 -7 -12 -21 -19 -40
-19 -19 0 -33 7 -40 19 -14 27 -13 77 2 101 14 22 57 27 76 8z m-2289 -164
c30 -9 69 -30 92 -51 45 -40 99 -146 123 -238 50 -196 148 -441 217 -542 83
-122 212 -215 356 -256 73 -20 98 -21 408 -21 320 0 447 9 520 36 117 42 200
103 254 185 17 25 31 44 31 41 0 -13 -52 -162 -95 -273 -54 -138 -163 -360
-224 -455 -63 -99 -62 -97 -130 -184 -278 -352 -655 -586 -1256 -780 -383
-123 -506 -117 -960 45 -284 102 -412 160 -590 267 -216 130 -386 280 -532
467 -131 167 -239 346 -262 432 -12 44 -34 303 -27 311 3 2 20 -4 38 -15 107
-63 321 -88 688 -80 285 7 359 19 473 79 73 39 179 140 229 219 65 101 138
285 203 509 36 123 77 213 118 258 46 50 227 76 326 46z m2687 -135 c100 -200
99 -438 -3 -633 -57 -107 -176 -222 -284 -275 -46 -22 -113 -47 -149 -55 -66
-15 -158 -24 -161 -16 -1 3 21 75 49 160 48 149 99 318 122 408 10 39 13 42
45 42 82 0 132 42 176 149 48 116 144 291 159 291 5 0 26 -32 46 -71z m-1956
-2505 c33 -75 34 -92 12 -112 -10 -9 -72 -73 -138 -142 -289 -306 -285 -302
-301 -288 -8 6 -29 32 -46 57 -28 42 -161 213 -209 270 -16 19 -17 25 -7 32 8
5 19 9 26 9 40 0 322 107 473 178 56 27 100 41 128 41 41 1 43 0 62 -45z
m-1478 1 c40 -13 138 -47 218 -76 152 -54 294 -99 314 -99 21 0 42 -19 30 -27
-6 -5 -24 -26 -40 -48 -16 -22 -73 -95 -128 -163 l-98 -124 -27 29 c-15 15
-109 112 -209 216 -100 103 -182 195 -182 205 0 24 32 112 42 112 4 0 40 -11
80 -25z"/>
<path d="M4900 7532 c-117 -33 -197 -82 -109 -67 71 13 219 8 282 -9 127 -33
242 -103 352 -214 l71 -71 54 27 c47 23 67 27 135 26 54 -1 99 -8 140 -23 71
-25 65 -25 65 -6 0 9 -22 38 -48 64 -63 63 -136 91 -239 91 -73 0 -78 2 -142
44 -203 133 -403 182 -561 138z"/>
<path d="M5515 4304 c-58 -9 -223 -54 -268 -73 -52 -22 -61 -33 -52 -62 8 -24
12 -23 122 16 103 36 313 73 313 55 0 -5 -8 -10 -18 -10 -31 0 -157 -46 -200
-74 -23 -14 -44 -26 -48 -26 -12 0 -140 -106 -191 -159 -31 -32 -53 -64 -53
-76 0 -24 28 -55 50 -55 7 0 43 28 79 63 67 64 198 163 206 155 3 -2 -4 -28
-15 -56 -42 -111 -14 -233 72 -314 62 -58 113 -78 200 -78 87 0 137 20 201 79
107 99 120 270 30 390 l-26 33 24 -7 c46 -14 194 -82 237 -108 41 -27 42 -28
28 -55 -8 -15 -28 -44 -45 -66 -17 -21 -31 -45 -31 -53 0 -17 39 -52 57 -53
30 0 105 96 134 173 l22 58 -22 22 -21 23 26 25 c32 30 70 94 80 134 l7 30
-42 -38 c-24 -22 -58 -45 -77 -53 -38 -16 -114 -19 -114 -4 0 5 11 26 25 46
17 25 23 44 19 58 -10 32 -24 43 -24 18 0 -23 -29 -47 -71 -57 -19 -5 -47 3
-100 28 -117 56 -177 68 -339 72 -80 2 -158 1 -175 -1z"/>
<path d="M4380 3762 c-27 -9 -29 -26 -23 -177 7 -173 -5 -262 -43 -332 -24
-41 -25 -50 -15 -84 27 -89 200 -178 225 -114 10 26 -5 45 -53 69 -25 13 -54
33 -64 44 -18 20 -18 22 7 85 40 101 53 303 28 448 -7 44 -35 71 -62 61z"/>
<path d="M4740 2483 c-8 -3 -29 -23 -45 -46 -40 -55 -73 -69 -159 -71 -102 -2
-142 9 -162 44 -22 35 -51 44 -82 24 -36 -24 -26 -89 20 -127 47 -39 97 -51
218 -52 96 0 110 3 163 29 96 47 149 153 95 190 -12 9 -25 15 -28 15 -3 -1
-12 -3 -20 -6z"/>
</g>
</svg>
